HIERARCHY
ROOT Hips
{
	OFFSET -14.64140 90.27770 -84.91600
	CHANNELS 6 Xposition Yposition Zposition Zrotation Xrotation Yrotation
	JOINT Spine
	{
		OFFSET 0.00000 13.20850 -1.60436
		CHANNELS 3 Zrotation Xrotation Yrotation
		JOINT Spine1
		{
			OFFSET 0.00000 8.61716 0.00000
			CHANNELS 3 Zrotation Xrotation Yrotation
			JOINT Spine2
			{
				OFFSET 0.00000 8.61717 0.00000
				CHANNELS 3 Zrotation Xrotation Yrotation
				JOINT Spine3
				{
					OFFSET 0.00000 8.61717 0.00000
					CHANNELS 3 Zrotation Xrotation Yrotation
					JOINT Neck
					{
						OFFSET 0.00000 11.07920 1.10792
						CHANNELS 3 Zrotation Xrotation Yrotation
						JOINT Neck1
						{
							OFFSET 0.00000 7.08032 0.00000
							CHANNELS 3 Zrotation Xrotation Yrotation
							JOINT Head
							{
								OFFSET 0.00000 7.08031 0.00000
								CHANNELS 3 Zrotation Xrotation Yrotation
								End site
								{
									OFFSET 0.00000 0.00000 0.00000
								}
							}
						}
					}
					JOINT RightShoulder
					{
						OFFSET -0.01000 7.91373 5.19711
						CHANNELS 3 Zrotation Xrotation Yrotation
						JOINT RightArm
						{
							OFFSET -18.41580 0.00000 0.00000
							CHANNELS 3 Zrotation Xrotation Yrotation
							JOINT RightForeArm
							{
								OFFSET -29.11090 0.00000 0.00000
								CHANNELS 3 Zrotation Xrotation Yrotation
								JOINT RightHand
								{
									OFFSET -24.65040 0.00000 0.00000
									CHANNELS 3 Zrotation Xrotation Yrotation
									JOINT RightHandThumb1
									{
										OFFSET -5.35114 -0.85590 3.97906
										CHANNELS 3 Zrotation Xrotation Yrotation
										JOINT RightHandThumb2
										{
											OFFSET -4.52789 0.00000 0.00000
											CHANNELS 3 Zrotation Xrotation Yrotation
											JOINT RightHandThumb3
											{
												OFFSET -2.46976 0.00000 0.00000
												CHANNELS 3 Zrotation Xrotation Yrotation
												End site
												{
													OFFSET 0.00000 0.00000 0.00000
												}
											}
										}
									}
									JOINT RightHandIndex1
									{
										OFFSET -14.26970 0.00000 2.88139
										CHANNELS 3 Zrotation Xrotation Yrotation
										JOINT RightHandIndex2
										{
											OFFSET -5.48836 0.00000 0.00000
											CHANNELS 3 Zrotation Xrotation Yrotation
											JOINT RightHandIndex3
											{
												OFFSET -3.01859 0.00000 0.00000
												CHANNELS 3 Zrotation Xrotation Yrotation
												End site
												{
													OFFSET 0.00000 0.00000 0.00000
												}
											}
										}
									}
									JOINT RightHandMiddle1
									{
										OFFSET -14.26970 0.00000 -0.09147
										CHANNELS 3 Zrotation Xrotation Yrotation
										JOINT RightHandMiddle2
										{
											OFFSET -6.17441 0.00000 0.00000
											CHANNELS 3 Zrotation Xrotation Yrotation
											JOINT RightHandMiddle3
											{
												OFFSET -3.56743 0.00000 0.00000
												CHANNELS 3 Zrotation Xrotation Yrotation
												End site
												{
													OFFSET 0.00000 0.00000 0.00000
												}
											}
										}
									}
									JOINT RightHandRing1
									{
										OFFSET -12.69180 0.00000 -3.06433
										CHANNELS 3 Zrotation Xrotation Yrotation
										JOINT RightHandRing2
										{
											OFFSET -5.62556 0.00000 0.00000
											CHANNELS 3 Zrotation Xrotation Yrotation
											JOINT RightHandRing3
											{
												OFFSET -3.56744 0.00000 0.00000
												CHANNELS 3 Zrotation Xrotation Yrotation
												End site
												{
													OFFSET 0.00000 0.00000 0.00000
												}
											}
										}
									}
									JOINT RightHandPinky1
									{
										OFFSET -11.11390 0.00000 -6.03719
										CHANNELS 3 Zrotation Xrotation Yrotation
										JOINT RightHandPinky2
										{
											OFFSET -4.52789 0.00000 0.00000
											CHANNELS 3 Zrotation Xrotation Yrotation
											JOINT RightHandPinky3
											{
												OFFSET -2.46976 0.00000 0.00000
												CHANNELS 3 Zrotation Xrotation Yrotation
												End site
												{
													OFFSET 0.00000 0.00000 0.00000
												}
											}
										}
									}
								}
							}
						}
					}
					JOINT LeftShoulder
					{
						OFFSET 0.01000 7.91373 5.19711
						CHANNELS 3 Zrotation Xrotation Yrotation
						JOINT LeftArm
						{
							OFFSET 18.41580 0.00000 0.00000
							CHANNELS 3 Zrotation Xrotation Yrotation
							JOINT LeftForeArm
							{
								OFFSET 29.11090 0.00000 0.00000
								CHANNELS 3 Zrotation Xrotation Yrotation
								JOINT LeftHand
								{
									OFFSET 24.65040 0.00000 0.00000
									CHANNELS 3 Zrotation Xrotation Yrotation
									JOINT LeftHandThumb1
									{
										OFFSET 5.35114 -0.85590 3.97906
										CHANNELS 3 Zrotation Xrotation Yrotation
										JOINT LeftHandThumb2
										{
											OFFSET 4.52789 0.00000 0.00000
											CHANNELS 3 Zrotation Xrotation Yrotation
											JOINT LeftHandThumb3
											{
												OFFSET 2.46977 0.00000 0.00000
												CHANNELS 3 Zrotation Xrotation Yrotation
												End site
												{
													OFFSET 0.00000 0.00000 0.00000
												}
											}
										}
									}
									JOINT LeftHandIndex1
									{
										OFFSET 14.26970 0.00000 2.88139
										CHANNELS 3 Zrotation Xrotation Yrotation
										JOINT LeftHandIndex2
										{
											OFFSET 5.48836 0.00000 0.00000
											CHANNELS 3 Zrotation Xrotation Yrotation
											JOINT LeftHandIndex3
											{
												OFFSET 3.01859 0.00000 0.00000
												CHANNELS 3 Zrotation Xrotation Yrotation
												End site
												{
													OFFSET 0.00000 0.00000 0.00000
												}
											}
										}
									}
									JOINT LeftHandMiddle1
									{
										OFFSET 14.26970 0.00000 -0.09147
										CHANNELS 3 Zrotation Xrotation Yrotation
										JOINT LeftHandMiddle2
										{
											OFFSET 6.17440 0.00000 0.00000
											CHANNELS 3 Zrotation Xrotation Yrotation
											JOINT LeftHandMiddle3
											{
												OFFSET 3.56744 0.00000 0.00000
												CHANNELS 3 Zrotation Xrotation Yrotation
												End site
												{
													OFFSET 0.00000 0.00000 0.00000
												}
											}
										}
									}
									JOINT LeftHandRing1
									{
										OFFSET 12.69180 0.00000 -3.06433
										CHANNELS 3 Zrotation Xrotation Yrotation
										JOINT LeftHandRing2
										{
											OFFSET 5.62556 0.00000 0.00000
											CHANNELS 3 Zrotation Xrotation Yrotation
											JOINT LeftHandRing3
											{
												OFFSET 3.56744 0.00000 0.00000
												CHANNELS 3 Zrotation Xrotation Yrotation
												End site
												{
													OFFSET 0.00000 0.00000 0.00000
												}
											}
										}
									}
									JOINT LeftHandPinky1
									{
										OFFSET 11.11390 0.00000 -6.03719
										CHANNELS 3 Zrotation Xrotation Yrotation
										JOINT LeftHandPinky2
										{
											OFFSET 4.52789 0.00000 0.00000
											CHANNELS 3 Zrotation Xrotation Yrotation
											JOINT LeftHandPinky3
											{
												OFFSET 2.46976 0.00000 0.00000
												CHANNELS 3 Zrotation Xrotation Yrotation
												End site
												{
													OFFSET 0.00000 0.00000 0.00000
												}
											}
										}
									}
								}
							}
						}
					}
					JOINT pCube4
					{
						OFFSET 0.00000 10.91090 1.10792
						CHANNELS 3 Zrotation Xrotation Yrotation
						End site
						{
							OFFSET 0.00000 0.00000 0.00000
						}
					}
				}
			}
		}
	}
	JOINT RightUpLeg
	{
		OFFSET -9.98441 0.00000 0.00000
		CHANNELS 3 Zrotation Xrotation Yrotation
		JOINT RightLeg
		{
			OFFSET 0.00000 -42.11790 0.00000
			CHANNELS 3 Zrotation Xrotation Yrotation
			JOINT RightFoot
			{
				OFFSET 0.00000 -45.00020 -0.00001
				CHANNELS 3 Zrotation Xrotation Yrotation
				JOINT RightForeFoot
				{
					OFFSET 0.00000 -3.74820 0.00000
					CHANNELS 3 Zrotation Xrotation Yrotation
					JOINT RightToeBase
					{
						OFFSET 0.00000 0.06325 14.43120
						CHANNELS 3 Zrotation Xrotation Yrotation
						End site
						{
							OFFSET 0.00000 0.00000 0.00000
						}
					}
				}
			}
		}
	}
	JOINT LeftUpLeg
	{
		OFFSET 9.98441 0.00000 0.00000
		CHANNELS 3 Zrotation Xrotation Yrotation
		JOINT LeftLeg
		{
			OFFSET 0.00000 -42.11800 0.00000
			CHANNELS 3 Zrotation Xrotation Yrotation
			JOINT LeftFoot
			{
				OFFSET 0.00000 -45.00070 0.00000
				CHANNELS 3 Zrotation Xrotation Yrotation
				JOINT LeftForeFoot
				{
					OFFSET 0.00000 -3.74824 0.00000
					CHANNELS 3 Zrotation Xrotation Yrotation
					JOINT LeftToeBase
					{
						OFFSET 0.00000 0.06325 14.43110
						CHANNELS 3 Zrotation Xrotation Yrotation
						End site
						{
							OFFSET 0.00000 0.00000 0.00000
						}
					}
				}
			}
		}
	}
}
MOTION
Frames: 4
Frame Time: 0.050000
0.009783258127720846 0.008529838282443475 -4.9626757275538415e-05 -0.020398756032340117 -0.020843007978698588 -0.03937918836025871 -3.2279099788821264 -0.14580776290267525 -0.7587819269174754 -1.0619175851007656 3.692167860678577 0.3732182914100729 -1.2907433957028787 -2.01337934863691 -0.11197136222917914 -0.2166403623490826 0.3660432847107836 -0.632203650752421 0.2805813961402353 12.277271516340303 -0.32634062231482136 0.15220363964219158 -1.1898331611246773 -2.877988509121857 0.499982902364718 -17.319493889842708 -0.25758078045596317 -5.315661472112015 1.9640156477230977 -14.670631851203241 71.8779114085015 30.950398945488022 11.295275586143422 1.346302362680756 3.5840095566904715 91.22490239240331 17.29046824760019 -0.6796676247229653 -4.338942471850235 4.5056035052931644 -0.11144013352388478 -1.620104585924648 0.018626286277420693 0.023192722885865883 -56.26660420898024 0.040129033981532704 -0.00530525035177479 -56.21374393668238 -38.75121275209509 0.028445160738533027 -0.048685329318118024 0.032953532231824297 -0.007878615738087829 0.04333191262417556 0.019982881433008727 -0.049814456762338095 0.02888526665345797 -36.68893363865997 -0.009643116203633234 0.0062613660158841265 0.03742687503438504 0.043503807731943955 -0.003156885868073504 -0.02299835287736725 0.04910646858026553 0.0103796948897519 -19.739060828882305 -0.039738114101644455 -0.03660861796335339 -0.011743723443532767 -0.007461263038804879 -0.029220680783672577 -0.009309373401210254 0.03316957698584548 0.023243460954704268 24.037829554991568 -0.008878395421798059 -0.04578754801311816 28.89027021649306 0.04286771441129682 -0.0020787795830628573 28.89729135339088 0.005703426917750467 0.011413201262350138 4.845481765634728 1.152252649803398 13.208767853316687 -74.04563311145628 30.585333269489556 -3.6453285578882824 1.4136394974194668 -8.12166447971504 -40.63224518315426 -15.628073489867385 -2.39454412271258 5.526617965464825 -0.45884256795853245 0.09015683918764851 -8.15687857085939 0.026095159576169525 -0.003486897656381065 44.60198355708479 -0.03463647993528463 -0.01539955217015129 44.57252535085209 12.416767684848956 0.013045353478183218 -0.028312932818333875 0.033517389441600653 0.026429729174208376 -0.008470798731168253 -0.03862328424697121 -0.017130976930974554 0.028935721647011494 11.146516304914567 0.0019493920393414367 -0.026514504126132876 -0.00013614219310551746 -0.023446814043063837 -0.0392234940391939 -0.03603549166620333 0.01075590861199899 -0.036493819415774245 4.807428896638808 -0.03180241411885607 0.003926719539857161 0.005000068195220109 0.015737674387151297 0.004362125448170204 -0.0214367606195449 -0.006383886851696836 -0.008836397106138712 -5.618609146891874 0.04307945283033779 -0.030292444504629847 -6.69148421113814 0.011258828550965973 -0.019392528284181792 -6.760037335424768 -0.028051657677241104 -0.00787462327772133 0.029697317050219697 -0.04647110287344601 -0.02493082200053841 8.000024302830724 3.498087132650907 -19.188073329660558 -0.04785786632398797 10.38736418389634 -0.009506509762412126 -5.6544239310804585 -15.652288644351893 3.192979815199284 -0.010794867016699286 0.012783753393636542 -0.004192862206618388 0.03554861827053651 4.657107534169853 0.03869587058326779 12.48451428312003 -8.271921525712493 6.868655641061437 -0.011915445036128786 46.397691447274326 0.045224456331138876 -4.333549888346259 -14.698872717977915 -3.831529591240457 0.010651189982150292 0.03572524240407569 0.01270261262461319 0.0036042503617445413 -10.711780851472625 0.005497523035505503 
-0.03602125497705258 0.016975671717380195 -0.037860288918433516 0.04439629860217471 0.006992197470541802 0.03579006220626013 -3.1515994287117235 -0.1789072206197829 -0.8557084219561877 -1.0043196132527392 3.7322097836557098 0.3922864934822043 -1.3162349102001214 -1.919007778068747 -0.024263111688798265 -0.10423005513663292 0.294936712593879 -0.6170055544949415 0.3739311006632172 12.110494098798215 -0.6541832786162661 0.08168472899710577 -1.237606873348353 -3.808010285064857 0.5807149258707559 -17.320358437772107 -0.36191089832898715 -5.341793774577286 1.9355615260194001 -14.652594557880075 70.83837625899224 31.352267341605554 11.789310456946474 2.018292974328067 3.5291322388278967 91.40652734278441 16.61598394320943 -0.6152676467318439 -4.107014691260543 4.479813130845483 -0.14828503874111584 -1.5860843777268212 -0.04668274472258626 -0.004762602556195343 -56.19587977636412 0.03946412304832007 0.04764837899099359 -56.27806902656663 -38.72731409549825 0.010679064420937114 -0.032712512743514194 0.007563216120374218 0.02539592463352674 0.00808261661372476 0.03634984645366606 0.02649480719435376 -0.026304976932395304 -36.65895160388015 -0.01831169519088739 0.019859909221533762 -0.025068066000599357 0.012686603695189392 0.0125513913946725 0.0001905680776417539 -0.03657490993434707 0.020717234380105674 -19.73197521307483 0.005538150618167551 0.000503551274493449 0.03198860292441911 0.0359592495644208 -0.018854389711686875 0.0007898013201172433 -0.020308913373838736 0.010670054089690881 24.100876166349238 0.03778664170022085 0.03187326058667383 28.820149733883717 -0.01140724083408518 -0.04116401402102162 28.819091265164488 -0.037931474611469826 0.001149008442674548 4.674604613777227 1.0707617053392773 13.11551625938017 -73.84396546719552 30.991924827030996 -3.307995015233975 0.6277028010341417 -7.698023597195521 -40.619175929320136 -15.558871454795806 -2.2668488747238817 5.243412813786381 -0.4599243793520523 0.09676144744671944 -8.104835100196576 0.010733512493129886 -0.03785061885684869 44.54611776903857 0.026412845155606865 -0.03479522346330369 44.54016502512687 12.45926841759712 0.000896909450549441 0.04610620685525728 0.03628283246610155 0.03088983593083225 0.028425633774035758 -0.04105333348312416 0.002232627060586051 -0.00867980218586849 11.101223722472636 0.020265542953638714 -0.002911004201607834 -0.041728250078305607 -0.005046998217983004 0.02785249644550312 0.015449750599786278 -0.022256460174450973 -0.0028688817761480857 4.726385785848641 0.042918160310277204 -0.027414525943060444 -0.021743725588587358 -0.041713916895066296 0.003969260005843366 0.01949814397456956 -0.011582902205157812 0.00918211807438876 -5.553506831784638 -0.00038585954039310934 0.033364856508989384 -6.696927981141924 -0.004563413102575314 0.0011134592779304573 -6.6823686118302605 0.03263533799809088 -0.008287874485197815 0.03401539563307628 -0.01193851219957257 -0.0017897203788508939 8.011938832934586 3.4806926541352663 -19.210830308162823 -0.008548857322305434 10.359426325262728 0.00754187480782213 -5.606658278597495 -15.67652586123552 3.1481433957034204 -0.024901484016629907 -0.014255235723954155 0.015364718605985128 0.006061868378361082 4.726778930101696 -0.020932999114631517 12.48441631486113 -8.231012637314315 6.84110555955144 0.04299071024138143 46.38631471570052 -0.04508564597773685 -4.278566546819999 -14.706800152625274 -3.870818831193045 -0.019903003281606355 -0.012942584302641974 -0.011195253327291103 -0.004773026700654942 -10.733719139379065 -0.012726004382262882 
0.02203763302447989 0.04956010033180915 0.03210106748198587 -0.037136348110843174 -0.02484769710965609 -0.027655791419640138 -2.9722174784584956 -0.31833583744073873 -0.86973260054254 -1.0208579540422906 3.769242805843784 0.3922611963996414 -1.291218563216624 -1.944747729882579 0.09819761706818719 -0.061915031945261274 0.30586267147340285 -0.6290040587375234 0.5231265105727316 11.954138627404738 -1.0392373175650162 0.13998880723660123 -1.3016297197233895 -4.811506120917359 0.725008484526141 -17.32418445130311 -0.4286802714994265 -5.307696204182093 1.9586866315143887 -14.509202793308356 69.80576487723317 32.05876635095006 12.49922290774602 2.146790843842104 3.256038473177825 90.610575865436 16.097349626425892 -0.6236950355286768 -3.963097023812103 4.5765612550262835 -0.13679002717999303 -1.6374099380208336 -0.01083911217302452 -0.035793548456994735 -56.245705968038855 0.001103381557821221 -0.0068430104833725434 -56.256224176636636 -38.81188231847654 -0.013124262573449761 -0.04944399761224284 0.0075177067737027875 0.006760488272264159 -0.012178731322863385 0.009922132476500428 -0.03424159945993144 0.03124366646419606 -36.69394328546651 -0.003734569384534002 0.0363051381573686 -0.029047581059608012 -0.009403213714892462 0.01429720677325173 0.010031516316041815 0.02229087881238934 0.028214857018602456 -19.72045563893109 0.023411764029748997 -0.021173981034542762 -0.0016760027372854293 -0.014935368976590178 0.008356062447323186 -0.03878091383173168 -0.001560044597567216 -0.0410624338117977 24.072315669491115 -0.04138495229166587 0.005926063599693067 28.870624065520612 0.03761762259159859 0.02875505472604813 28.86780593668446 -0.0489248775429864 -0.008337170572082985 4.390697597860017 0.9953746540066227 12.997026529004303 -73.59262574031727 31.371757681888568 -2.772720734440685 0.3926810070903069 -7.667312246237071 -40.73612128658877 -15.396312601841238 -1.9766041200652174 4.940291207681314 -0.46214260747348884 0.0644897517970657 -8.089120491246053 -0.03344933984194924 -0.0029293086558988967 44.572067541505916 0.0019088777615911686 0.014863049670416212 44.52744800389346 12.47599064993979 0.047839474430988446 -0.04227267220483065 -0.01756329847442547 0.03674790293958406 0.03669418085909727 -0.027402497814132457 0.01094297331982302 -0.017223533504329692 11.066337303317571 -0.014955140586355858 -0.031590253803016444 -0.028724129491406406 0.027258590435029734 -0.015708692452361103 0.024333502923743505 0.03824903151729377 -0.04144204106583046 4.736632902067637 0.014415098229839718 -0.03304938531890395 0.025158042579521832 -0.004568983860961362 0.022365438090912015 -0.023790226050499144 -0.010632475370391999 0.011083351997642163 -5.573118290225862 -0.04183168713423177 0.010387517644557436 -6.700310276646891 -0.03038372005005308 -0.03290045864464288 -6.7388040206031175 -0.02890372515925337 -0.043757734544943125 -0.02101634767592066 -0.013779565159602599 -0.024628855409632586 8.026614176747655 3.5301945998835484 -19.2656700644667 -0.004997864369408052 10.378676874978535 -0.011148880313783024 -5.628679287233674 -15.657096353635037 3.1985137643325947 -0.012652082258144329 0.0014994612062023593 -0.020733667290935003 0.017044484507792505 4.704527251962511 -0.013480780824686412 12.42176463456919 -8.256900096064367 6.8516800026276465 -0.02455382787140458 46.38649935624696 -0.011817006061423902 -4.345560645315564 -14.727592314747593 -3.7897463772381097 0.002519356020079212 -0.012406771537145493 -0.008940688865901632 -0.012868224544019587 -10.709164108109757 -0.029322553244046798 
-0.0014425215796440025 0.014674272404080223 -0.011952915158098418 -0.037693000031403266 0.040594551449372886 -0.01903004486815825 -2.8876036456548677 -0.32641766213954193 -0.8538386476599182 -1.0303318886908144 3.725493146943591 0.38039159516019844 -1.3379625201446805 -1.9082949467036863 0.22359303602572517 0.04163617203689096 0.25268859266935917 -0.5926720100283094 0.5800771553520798 11.895904886877597 -1.3463075180451243 0.11595879926081892 -1.2917037302702787 -5.655228074916814 0.753226648645155 -17.390434127626392 -0.4641446561275921 -5.442069263875262 1.963982568582725 -14.406355662826922 69.0600715458981 32.98326905559317 13.670760298751857 2.0598098285166127 2.879230656757173 90.62897360566461 15.788630084709917 -0.5546426008693274 -3.7719365328922674 4.486308922532109 -0.0941253653904717 -1.5780824321682925 -0.04231294292581159 -0.03990071143053614 -56.22311991538119 -0.00022462787818538688 -0.0308629184274372 -56.255161055977815 -38.75634556092838 0.02907098587097741 0.03275868401200584 0.03423540589135099 -0.003205317034626831 -0.017379614609527486 -0.019966352663707953 -0.019961171842505152 -0.04199517725925089 -36.74315568163542 0.008648950836736544 0.04588773191400075 0.022632961723119682 -0.0006958668755693777 -0.04377064869520372 -0.014845996450559042 0.015055470969292167 0.02941438629911043 -19.788096181893494 0.01665676197054742 -0.020749510952562795 -0.04173415590366655 -0.015180239506177829 -0.02811268115702872 -0.026628325538213583 -0.04038567412553665 -0.03445667383820437 24.010248093722094 0.012530257387023376 0.0048248398463952916 28.819556058748145 0.009549958229057286 0.015479823558603032 28.865059029068235 0.02692213180248293 -0.04085054416998138 4.1861866600464 0.9887903428971898 13.029633686364983 -73.36201717789935 31.46779173885423 -2.4099930381838486 0.6411897064243047 -8.020502774706484 -41.044379199251956 -15.20923771611427 -1.7795551581915932 4.6505177710685555 -0.44773485667451834 0.1111898292028449 -8.10857136698626 -0.04190049625034531 0.034325248039602324 44.5837405861013 0.002456497963327907 0.024638951476659777 44.616478150510936 12.475583410764655 0.04003912155794918 0.03482667903329433 0.014262035034283912 0.023116853554646453 0.018734490986100232 0.03233614178862812 0.014236623037769706 -0.02635471426411612 11.142100915810357 0.0065672455489032685 -0.03399717764279325 -0.02030211744470823 -0.03457560383408324 0.01698076916955447 0.022160140092926446 0.021633640972145075 -0.033822066319326896 4.726180828679182 -0.012106569702984515 0.01881101219760044 -0.01458155036679728 0.014984362340440253 0.016103379229326167 -0.030998667851321462 -0.005567360364947926 -0.04765923892534984 -5.598283495043047 0.04406821711233587 0.03403477384315112 -6.721707720021719 -0.04322339356463542 0.0005982836758601276 -6.722881445043236 -0.04411369537945544 -0.021277484826754418 0.037963972415800996 -0.03892915279915257 0.0009092984795498329 8.044364829997283 3.460686512954177 -19.252358183648692 0.0365220493880964 10.345581673283533 -0.02985863484379279 -5.631877787509343 -15.688063913514345 3.221156727772728 -0.03951040435140191 -0.03106577976289784 -0.048219466719296854 0.043919301612857876 4.683503253605072 0.04206865839413635 12.43233858266667 -8.280731328950303 6.93011553163747 0.012749185187084941 46.34852115108816 0.03524526557573324 -4.311772995859687 -14.73849845126397 -3.8141244602680318 -0.0244865629240958 0.02185373691457731 0.03463606665705775 -0.01075535853775017 -10.764868519435247 0.011667991885441374 
